<svg width="180" height="28" viewBox="0 0 180 28" fill="none" xmlns="http://www.w3.org/2000/svg">
<path d="M37.5852 21V7.90909H39.1705V14.4034H39.3239L45.2045 7.90909H47.2756L41.7784 13.8153L47.2756 21H45.358L40.8068 14.9148L39.1705 16.7557V21H37.5852ZM52.5186 21.2045C51.5726 21.2045 50.7566 20.9957 50.0705 20.5781C49.3887 20.1562 48.8624 19.5682 48.4917 18.8139C48.1252 18.0554 47.9419 17.1733 47.9419 16.1676C47.9419 15.1619 48.1252 14.2756 48.4917 13.5085C48.8624 12.7372 49.378 12.1364 50.0385 11.706C50.7033 11.2713 51.4789 11.054 52.3652 11.054C52.8766 11.054 53.3816 11.1392 53.8801 11.3097C54.3787 11.4801 54.8326 11.7571 55.2417 12.1406C55.6507 12.5199 55.9767 13.0227 56.2196 13.6491C56.4625 14.2756 56.584 15.0469 56.584 15.9631V16.6023H49.0158V15.2983H55.0499C55.0499 14.7443 54.9391 14.25 54.7175 13.8153C54.5002 13.3807 54.1891 13.0376 53.7843 12.7862C53.3837 12.5348 52.9107 12.4091 52.3652 12.4091C51.7644 12.4091 51.2445 12.5582 50.8056 12.8565C50.3709 13.1506 50.0364 13.5341 49.802 14.0071C49.5676 14.4801 49.4505 14.9872 49.4505 15.5284V16.3977C49.4505 17.1392 49.5783 17.7678 49.834 18.2834C50.0939 18.7947 50.454 19.1847 50.9142 19.4531C51.3745 19.7173 51.9093 19.8494 52.5186 19.8494C52.915 19.8494 53.2729 19.794 53.5925 19.6832C53.9164 19.5682 54.1955 19.3977 54.4299 19.1719C54.6642 18.9418 54.8453 18.6562 54.9732 18.3153L56.4306 18.7244C56.2772 19.2188 56.0194 19.6534 55.6571 20.0284C55.2949 20.3991 54.8475 20.6889 54.3148 20.8977C53.7821 21.1023 53.1834 21.2045 52.5186 21.2045ZM58.8787 21V11.1818H60.3361V12.7159H60.464C60.6685 12.1918 60.9988 11.7848 61.4547 11.495C61.9107 11.201 62.4583 11.054 63.0975 11.054C63.7452 11.054 64.2843 11.201 64.7147 11.495C65.1493 11.7848 65.4881 12.1918 65.731 12.7159H65.8333C66.0847 12.2088 66.4618 11.8061 66.9647 11.5078C67.4675 11.2053 68.0705 11.054 68.7736 11.054C69.6515 11.054 70.3695 11.3288 70.9277 11.8786C71.486 12.424 71.7651 13.2741 71.7651 14.429V21H70.2566V14.429C70.2566 13.7045 70.0584 13.1868 69.6621 12.8757C69.2658 12.5646 68.7992 12.4091 68.2623 12.4091C67.5719 12.4091 67.0371 12.6179 66.6578 13.0355C66.2786 13.4489 66.089 13.973 66.089 14.608V21H64.5549V14.2756C64.5549 13.7173 64.3738 13.2678 64.0115 12.9268C63.6493 12.5817 63.1827 12.4091 62.6117 12.4091C62.2196 12.4091 61.8532 12.5135 61.5123 12.7223C61.1756 12.9311 60.9029 13.2209 60.6941 13.5916C60.4895 13.9581 60.3873 14.3821 60.3873 14.8636V21H58.8787ZM74.7278 21V7.90909H76.2363V12.7415H76.3642C76.475 12.571 76.6284 12.3537 76.8244 12.0895C77.0247 11.821 77.3102 11.5824 77.6809 11.3736C78.0559 11.1605 78.563 11.054 79.2022 11.054C80.0289 11.054 80.7576 11.2607 81.3883 11.674C82.019 12.0874 82.5112 12.6733 82.8649 13.4318C83.2186 14.1903 83.3954 15.0852 83.3954 16.1165C83.3954 17.1562 83.2186 18.0575 82.8649 18.8203C82.5112 19.5788 82.0211 20.1669 81.3947 20.5845C80.7683 20.9979 80.046 21.2045 79.2278 21.2045C78.5971 21.2045 78.0922 21.1001 77.7129 20.8913C77.3336 20.6783 77.0417 20.4375 76.8372 20.169C76.6326 19.8963 76.475 19.6705 76.3642 19.4915H76.1852V21H74.7278ZM76.2108 16.0909C76.2108 16.8324 76.3194 17.4865 76.5368 18.0533C76.7541 18.6158 77.0716 19.0568 77.4892 19.3764C77.9068 19.6918 78.4181 19.8494 79.0233 19.8494C79.6539 19.8494 80.1802 19.6832 80.6021 19.3509C81.0282 19.0142 81.3478 18.5625 81.5609 17.9957C81.7782 17.4247 81.8869 16.7898 81.8869 16.0909C81.8869 15.4006 81.7804 14.7784 81.5673 14.2244C81.3585 13.6662 81.041 13.2251 80.6149 12.9013C80.193 12.5732 79.6625 12.4091 79.0233 12.4091C78.4096 12.4091 77.894 12.5646 77.4764 12.8757C77.0588 13.1825 76.7434 13.6129 76.5304 14.1669C76.3173 14.7166 76.2108 15.358 76.2108 16.0909ZM88.5922 21.2301C87.97 21.2301 87.4054 21.1129 86.8983 20.8786C86.3912 20.6399 85.9885 20.2969 85.6902 19.8494C85.3919 19.3977 85.2427 18.8523 85.2427 18.2131C85.2427 17.6506 85.3535 17.1946 85.5751 16.8452C85.7967 16.4915 86.0929 16.2145 86.4636 16.0142C86.8343 15.8139 87.2434 15.6648 87.6909 15.5668C88.1426 15.4645 88.5964 15.3835 89.0524 15.3239C89.649 15.2472 90.1326 15.1896 90.5034 15.1513C90.8784 15.1087 91.1511 15.0384 91.3216 14.9403C91.4963 14.8423 91.5836 14.6719 91.5836 14.429V14.3778C91.5836 13.7472 91.411 13.2571 91.0659 12.9077C90.725 12.5582 90.2072 12.3835 89.5126 12.3835C88.7924 12.3835 88.2278 12.5412 87.8187 12.8565C87.4096 13.1719 87.122 13.5085 86.9558 13.8665L85.524 13.3551C85.7797 12.7585 86.1206 12.294 86.5467 11.9616C86.9771 11.625 87.4458 11.3906 87.9529 11.2585C88.4643 11.1222 88.9672 11.054 89.4615 11.054C89.7768 11.054 90.139 11.0923 90.5481 11.169C90.9615 11.2415 91.3599 11.3928 91.7434 11.6229C92.1312 11.853 92.4529 12.2003 92.7086 12.6648C92.9643 13.1293 93.0922 13.7514 93.0922 14.5312V21H91.5836V19.6705H91.5069C91.4047 19.8835 91.2342 20.1115 90.9956 20.3544C90.7569 20.5973 90.4395 20.804 90.0431 20.9744C89.6468 21.1449 89.1632 21.2301 88.5922 21.2301ZM88.8223 19.875C89.4189 19.875 89.9217 19.7578 90.3308 19.5234C90.7441 19.2891 91.0552 18.9865 91.264 18.6158C91.4771 18.245 91.5836 17.8551 91.5836 17.446V16.0653C91.5197 16.142 91.3791 16.2124 91.1618 16.2763C90.9487 16.3359 90.7015 16.3892 90.4203 16.4361C90.1433 16.4787 89.8727 16.517 89.6085 16.5511C89.3485 16.581 89.1376 16.6065 88.9757 16.6278C88.5836 16.679 88.2172 16.7621 87.8762 16.8771C87.5396 16.9879 87.2669 17.1562 87.0581 17.3821C86.8535 17.6037 86.7512 17.9062 86.7512 18.2898C86.7512 18.8139 86.9451 19.2102 87.3329 19.4787C87.725 19.7429 88.2214 19.875 88.8223 19.875ZM97.354 7.90909V21H95.8455V7.90909H97.354ZM100.117 21V11.1818H101.626V21H100.117ZM100.884 9.54545C100.59 9.54545 100.336 9.44531 100.123 9.24503C99.9146 9.04474 99.8102 8.80398 99.8102 8.52273C99.8102 8.24148 99.9146 8.00071 100.123 7.80043C100.336 7.60014 100.59 7.5 100.884 7.5C101.178 7.5 101.43 7.60014 101.638 7.80043C101.851 8.00071 101.958 8.24148 101.958 8.52273C101.958 8.80398 101.851 9.04474 101.638 9.24503C101.43 9.44531 101.178 9.54545 100.884 9.54545ZM110.857 17.4205L110.832 15.554H111.138L115.434 11.1818H117.3L112.724 15.8097H112.596L110.857 17.4205ZM109.451 21V7.90909H110.96V21H109.451ZM115.69 21L111.854 16.142L112.928 15.0938L117.607 21H115.69ZM122.954 21.2045C122.008 21.2045 121.192 20.9957 120.506 20.5781C119.824 20.1562 119.298 19.5682 118.927 18.8139C118.561 18.0554 118.377 17.1733 118.377 16.1676C118.377 15.1619 118.561 14.2756 118.927 13.5085C119.298 12.7372 119.814 12.1364 120.474 11.706C121.139 11.2713 121.914 11.054 122.801 11.054C123.312 11.054 123.817 11.1392 124.316 11.3097C124.814 11.4801 125.268 11.7571 125.677 12.1406C126.086 12.5199 126.412 13.0227 126.655 13.6491C126.898 14.2756 127.02 15.0469 127.02 15.9631V16.6023H119.451V15.2983H125.485C125.485 14.7443 125.375 14.25 125.153 13.8153C124.936 13.3807 124.625 13.0376 124.22 12.7862C123.819 12.5348 123.346 12.4091 122.801 12.4091C122.2 12.4091 121.68 12.5582 121.241 12.8565C120.806 13.1506 120.472 13.5341 120.238 14.0071C120.003 14.4801 119.886 14.9872 119.886 15.5284V16.3977C119.886 17.1392 120.014 17.7678 120.27 18.2834C120.529 18.7947 120.89 19.1847 121.35 19.4531C121.81 19.7173 122.345 19.8494 122.954 19.8494C123.35 19.8494 123.708 19.794 124.028 19.6832C124.352 19.5682 124.631 19.3977 124.865 19.1719C125.1 18.9418 125.281 18.6562 125.409 18.3153L126.866 18.7244C126.713 19.2188 126.455 19.6534 126.093 20.0284C125.73 20.3991 125.283 20.6889 124.75 20.8977C124.218 21.1023 123.619 21.2045 122.954 21.2045ZM134.581 21V7.90909H136.167V19.5938H142.252V21H134.581ZM148.49 21.2045C147.604 21.2045 146.826 20.9936 146.157 20.5717C145.493 20.1499 144.973 19.5597 144.598 18.8011C144.227 18.0426 144.042 17.1562 144.042 16.142C144.042 15.1193 144.227 14.2266 144.598 13.4638C144.973 12.701 145.493 12.1087 146.157 11.6868C146.826 11.2649 147.604 11.054 148.49 11.054C149.377 11.054 150.152 11.2649 150.817 11.6868C151.486 12.1087 152.006 12.701 152.377 13.4638C152.752 14.2266 152.939 15.1193 152.939 16.142C152.939 17.1562 152.752 18.0426 152.377 18.8011C152.006 19.5597 151.486 20.1499 150.817 20.5717C150.152 20.9936 149.377 21.2045 148.49 21.2045ZM148.49 19.8494C149.164 19.8494 149.718 19.6768 150.152 19.3317C150.587 18.9865 150.909 18.5327 151.118 17.9702C151.326 17.4077 151.431 16.7983 151.431 16.142C151.431 15.4858 151.326 14.8743 151.118 14.3075C150.909 13.7408 150.587 13.2827 150.152 12.9332C149.718 12.5838 149.164 12.4091 148.49 12.4091C147.817 12.4091 147.263 12.5838 146.828 12.9332C146.394 13.2827 146.072 13.7408 145.863 14.3075C145.654 14.8743 145.55 15.4858 145.55 16.142C145.55 16.7983 145.654 17.4077 145.863 17.9702C146.072 18.5327 146.394 18.9865 146.828 19.3317C147.263 19.6768 147.817 19.8494 148.49 19.8494ZM159.205 24.8864C158.476 24.8864 157.85 24.7926 157.326 24.6051C156.802 24.4219 156.365 24.179 156.015 23.8764C155.67 23.5781 155.395 23.2585 155.191 22.9176L156.393 22.0739C156.529 22.2528 156.702 22.4574 156.91 22.6875C157.119 22.9219 157.405 23.1243 157.767 23.2947C158.133 23.4695 158.613 23.5568 159.205 23.5568C159.998 23.5568 160.652 23.3651 161.167 22.9815C161.683 22.598 161.941 21.9972 161.941 21.179V19.1847H161.813C161.702 19.3636 161.545 19.5852 161.34 19.8494C161.14 20.1094 160.85 20.3416 160.471 20.5462C160.096 20.7464 159.589 20.8466 158.949 20.8466C158.157 20.8466 157.445 20.6591 156.814 20.2841C156.188 19.9091 155.692 19.3636 155.325 18.6477C154.963 17.9318 154.782 17.0625 154.782 16.0398C154.782 15.0341 154.959 14.1584 155.312 13.4126C155.666 12.6626 156.158 12.0831 156.789 11.674C157.42 11.2607 158.148 11.054 158.975 11.054C159.614 11.054 160.121 11.1605 160.496 11.3736C160.876 11.5824 161.165 11.821 161.366 12.0895C161.57 12.3537 161.728 12.571 161.839 12.7415H161.992V11.1818H163.449V21.2812C163.449 22.125 163.258 22.8111 162.874 23.3395C162.495 23.8722 161.983 24.2621 161.34 24.5092C160.701 24.7607 159.989 24.8864 159.205 24.8864ZM159.154 19.4915C159.759 19.4915 160.27 19.353 160.688 19.076C161.106 18.799 161.423 18.4006 161.64 17.8807C161.858 17.3608 161.966 16.7386 161.966 16.0142C161.966 15.3068 161.86 14.6825 161.647 14.1413C161.434 13.6001 161.118 13.1761 160.701 12.8693C160.283 12.5625 159.768 12.4091 159.154 12.4091C158.515 12.4091 157.982 12.571 157.556 12.8949C157.134 13.2187 156.817 13.6534 156.604 14.1989C156.395 14.7443 156.29 15.3494 156.29 16.0142C156.29 16.696 156.397 17.299 156.61 17.8232C156.827 18.343 157.147 18.7521 157.569 19.0504C157.995 19.3445 158.523 19.4915 159.154 19.4915ZM166.211 21V11.1818H167.719V21H166.211ZM166.978 9.54545C166.684 9.54545 166.43 9.44531 166.217 9.24503C166.008 9.04474 165.904 8.80398 165.904 8.52273C165.904 8.24148 166.008 8.00071 166.217 7.80043C166.43 7.60014 166.684 7.5 166.978 7.5C167.272 7.5 167.523 7.60014 167.732 7.80043C167.945 8.00071 168.052 8.24148 168.052 8.52273C168.052 8.80398 167.945 9.04474 167.732 9.24503C167.523 9.44531 167.272 9.54545 166.978 9.54545ZM171.991 15.0938V21H170.482V11.1818H171.94V12.7159H172.067C172.298 12.2173 172.647 11.8168 173.116 11.5142C173.585 11.2074 174.19 11.054 174.931 11.054C175.596 11.054 176.178 11.1903 176.676 11.4631C177.175 11.7315 177.563 12.1406 177.839 12.6903C178.116 13.2358 178.255 13.9261 178.255 14.7614V21H176.746V14.8636C176.746 14.0923 176.546 13.4915 176.146 13.0611C175.745 12.6264 175.195 12.4091 174.496 12.4091C174.015 12.4091 173.585 12.5135 173.205 12.7223C172.83 12.9311 172.534 13.2358 172.317 13.6364C172.099 14.0369 171.991 14.5227 171.991 15.0938Z" fill="#828282"/>
<path fill-rule="evenodd" clip-rule="evenodd" d="M14.3498 15.7505H24.7915C25.2745 15.7505 25.6665 15.3585 25.6665 14.8755C25.6665 14.3925 25.2745 14.0005 24.7915 14.0005H14.3498C13.8668 14.0005 13.4748 14.3925 13.4748 14.8755C13.4748 15.3585 13.8668 15.7505 14.3498 15.7505" fill="#828282"/>
<mask id="mask0_278_3224" style="mask-type:alpha" maskUnits="userSpaceOnUse" x="4" y="8" width="12" height="14">
<path fill-rule="evenodd" clip-rule="evenodd" d="M15.2249 8.16711H4.21502V21.5849H15.2249V8.16711Z" fill="white"/>
</mask>
<g mask="url(#mask0_278_3224)">
<path fill-rule="evenodd" clip-rule="evenodd" d="M13.4749 10.6269V19.1237L6.73152 14.8759L13.4749 10.6269ZM14.3499 21.5854C14.4957 21.5854 14.6404 21.5481 14.7722 21.4757C15.0522 21.3217 15.2249 21.0289 15.2249 20.7104V9.0414C15.2249 8.72173 15.0522 8.4289 14.7722 8.2749C14.4934 8.12207 14.1515 8.1314 13.8844 8.30057L4.62335 14.1351C4.36785 14.2961 4.21502 14.5749 4.21502 14.8759C4.21502 15.1757 4.36785 15.4557 4.62335 15.6156L13.8844 21.4501C14.0255 21.5399 14.1877 21.5854 14.3499 21.5854V21.5854Z" fill="#828282"/>
</g>
</svg>
