<svg enable-background="new 0 0 132.8 132.8" height="132.8" viewBox="0 0 132.8 132.8" width="132.8" xmlns="http://www.w3.org/2000/svg"><path d="m130.902 66.299c0 35.6-28.9 64.5-64.5 64.5-1.29 0-2.58-.04-3.85-.12-5.99-.35-11.76-1.52-17.2-3.4-25.28-8.73-43.45-32.75-43.45-60.98 0-35.6 28.89-64.5 64.5-64.5 35.6-0 64.5 28.9 64.5 64.5z" fill="#fff"/><path d="m62.552 79.099v51.58c-5.99-.35-11.76-1.52-17.2-3.4v-48.18c0-4.8 3.9-8.6 8.6-8.6 4.8.001 8.6 3.9 8.6 8.6z" fill="#00e6b3"/><g fill="#142664"><path d="m66.4 0c-36.6 0-66.4 29.7-66.4 66.4s29.8 66.4 66.4 66.4c36.7 0 66.4-29.7 66.4-66.4s-29.8-66.4-66.4-66.4zm0 128.8c-34.5 0-62.5-28-62.5-62.5s28-62.5 62.5-62.5 62.5 28 62.5 62.5-28 62.5-62.5 62.5z"/><path d="m45.334 108.432v7h17.2v-7z"/><path d="m45.334 122.432v7h17.2v-7z"/><path d="m111.081 57.473v-7.094c0-1.11-.432-2.221-1.234-3.023-1.604-1.604-4.318-4.318-5.861-5.861-.802-.802-1.912-1.234-3.023-1.234h-74.644c-2.385 0-4.318 1.933-4.318 4.318v37.446c0 2.344 1.912 4.318 4.318 4.318h8.513c1.11 0 2.221.432 3.023 1.234 3.146 3.146 11.413 11.413 14.62 14.62.802.802 1.912 1.234 3.023 1.234h47.378c2.344 0 4.318-1.912 4.318-4.318 0-3.084 0-6.786 0-6.786z"/></g><path d="m57.658 57.473v23.936l12.893 12.893h-7.403c-.617 0-1.172-.247-1.604-.679-2.221-2.221-9.377-9.377-11.598-11.598-.432-.432-.679-.987-.679-1.604 0-3.455 0-15.608 0-20.728 0-1.234.987-2.283 2.283-2.283 2.468.063 6.108.063 6.108.063z" fill="#ff2e93"/><path d="m115.461 57.473c1.419 0 2.529 1.11 2.529 2.529v20.296c0 .679-.247 1.295-.74 1.789-2.283 2.283-9.13 9.13-11.413 11.413-.494.494-1.11.74-1.789.74-5.429 0-29.981 0-34.731 0-.494 0-.987-.185-1.357-.555-2.036-2.036-8.822-8.822-11.351-11.351-.617-.617-.987-1.481-.987-2.344 0-4.072 0-15.916 0-20.604 0-.494.185-.987.555-1.357s.864-.555 1.357-.555c9.069-.001 47.625-.001 57.927-.001z" fill="#00e6b3"/><path d="m62.531 80.298c-.308-.308-.494-.74-.494-1.234 0-2.529 0-10.857 0-14.497 0-.987.802-1.727 1.727-1.727h46.823c.987 0 1.727.802 1.727 1.727v14.497c0 .432-.185.925-.494 1.234-1.604 1.604-6.539 6.539-8.143 8.143-.308.308-.74.494-1.234.494-4.257 0-26.28 0-30.536 0-.494 0-.925-.185-1.234-.494-1.664-1.604-6.538-6.539-8.142-8.143z" fill="#fff"/><path d="m76.165 75.61h-1.481v-3.763h1.481c.617 0 1.049-.494 1.049-1.049 0-.617-.494-1.049-1.049-1.049h-7.526c-.617 0-1.049.494-1.049 1.049 0 .617.494 1.049 1.049 1.049h1.481v3.763h-1.481c-.617 0-1.049.494-1.049 1.049 0 .617.494 1.049 1.049 1.049h7.526c.617 0 1.049-.494 1.049-1.049.061-.556-.433-1.049-1.049-1.049z" fill="#142664"/><path d="m105.591 75.61h-1.481v-3.763h1.481c.617 0 1.049-.494 1.049-1.049 0-.617-.494-1.049-1.049-1.049h-7.526c-.617 0-1.049.494-1.049 1.049 0 .617.494 1.049 1.049 1.049h1.481v3.763h-1.481c-.617 0-1.049.494-1.049 1.049 0 .617.494 1.049 1.049 1.049h7.526c.617 0 1.049-.494 1.049-1.049.061-.556-.433-1.049-1.049-1.049z" fill="#142664"/><path d="m93.129 80.915h-1.481v-3.393h1.481c.617 0 1.049-.494 1.049-1.049 0-.617-.494-1.049-1.049-1.049h-2.591c-8.143 0-9.87 6.292-9.87 6.354-.062.308 0 .679.185.925.185.247.494.432.864.432h8.822 2.591c.617 0 1.049-.494 1.049-1.049-.001-.677-.433-1.171-1.05-1.171zm-3.639-3.393v3.393h-6.107c.801-1.295 2.59-3.084 6.107-3.393z" fill="#142664"/><circle cx="35.972" cy="75.425" fill="#ff2e93" r="3"/><circle cx="35.972" cy="60.84" fill="#ff2e93" r="3"/></svg>